G04 (created by PCBNEW-RS274X (2010-05-05 BZR 2356)-stable) date 7/8/2010 2:38:29 PM*
G01*
G70*
G90*
%MOIN*%
G04 Gerber Fmt 3.4, Leading zero omitted, Abs format*
%FSLAX34Y34*%
G04 APERTURE LIST*
%ADD10C,0.001000*%
%ADD11C,0.012000*%
%ADD12C,0.015000*%
G04 APERTURE END LIST*
G54D10*
G54D11*
X38408Y-13040D02*
X38408Y-13574D01*
X38065Y-13040D02*
X38065Y-13460D01*
X38104Y-13536D01*
X38180Y-13574D01*
X38294Y-13574D01*
X38370Y-13536D01*
X38408Y-13498D01*
X38789Y-13040D02*
X38789Y-13840D01*
X38789Y-13079D02*
X38866Y-13040D01*
X39018Y-13040D01*
X39094Y-13079D01*
X39132Y-13117D01*
X39170Y-13193D01*
X39170Y-13421D01*
X39132Y-13498D01*
X39094Y-13536D01*
X39018Y-13574D01*
X38866Y-13574D01*
X38789Y-13536D01*
X39513Y-13040D02*
X39513Y-13840D01*
X39513Y-13079D02*
X39590Y-13040D01*
X39742Y-13040D01*
X39818Y-13079D01*
X39856Y-13117D01*
X39894Y-13193D01*
X39894Y-13421D01*
X39856Y-13498D01*
X39818Y-13536D01*
X39742Y-13574D01*
X39590Y-13574D01*
X39513Y-13536D01*
X40542Y-13536D02*
X40466Y-13574D01*
X40314Y-13574D01*
X40237Y-13536D01*
X40199Y-13460D01*
X40199Y-13155D01*
X40237Y-13079D01*
X40314Y-13040D01*
X40466Y-13040D01*
X40542Y-13079D01*
X40580Y-13155D01*
X40580Y-13231D01*
X40199Y-13307D01*
X40923Y-13574D02*
X40923Y-13040D01*
X40923Y-13193D02*
X40962Y-13117D01*
X41000Y-13079D01*
X41076Y-13040D01*
X41152Y-13040D01*
X42143Y-13574D02*
X42067Y-13536D01*
X42028Y-13460D01*
X42028Y-12774D01*
X42752Y-13536D02*
X42676Y-13574D01*
X42524Y-13574D01*
X42447Y-13536D01*
X42409Y-13460D01*
X42409Y-13155D01*
X42447Y-13079D01*
X42524Y-13040D01*
X42676Y-13040D01*
X42752Y-13079D01*
X42790Y-13155D01*
X42790Y-13231D01*
X42409Y-13307D01*
X43019Y-13040D02*
X43324Y-13040D01*
X43133Y-13574D02*
X43133Y-12888D01*
X43172Y-12812D01*
X43248Y-12774D01*
X43324Y-12774D01*
X43476Y-13040D02*
X43781Y-13040D01*
X43590Y-12774D02*
X43590Y-13460D01*
X43629Y-13536D01*
X43705Y-13574D01*
X43781Y-13574D01*
X45000Y-13536D02*
X44924Y-13574D01*
X44772Y-13574D01*
X44696Y-13536D01*
X44657Y-13498D01*
X44619Y-13421D01*
X44619Y-13193D01*
X44657Y-13117D01*
X44696Y-13079D01*
X44772Y-13040D01*
X44924Y-13040D01*
X45000Y-13079D01*
X45458Y-13574D02*
X45382Y-13536D01*
X45343Y-13498D01*
X45305Y-13421D01*
X45305Y-13193D01*
X45343Y-13117D01*
X45382Y-13079D01*
X45458Y-13040D01*
X45572Y-13040D01*
X45648Y-13079D01*
X45686Y-13117D01*
X45724Y-13193D01*
X45724Y-13421D01*
X45686Y-13498D01*
X45648Y-13536D01*
X45572Y-13574D01*
X45458Y-13574D01*
X46067Y-13574D02*
X46067Y-13040D01*
X46067Y-13193D02*
X46106Y-13117D01*
X46144Y-13079D01*
X46220Y-13040D01*
X46296Y-13040D01*
X46562Y-13040D02*
X46562Y-13574D01*
X46562Y-13117D02*
X46601Y-13079D01*
X46677Y-13040D01*
X46791Y-13040D01*
X46867Y-13079D01*
X46905Y-13155D01*
X46905Y-13574D01*
X47591Y-13536D02*
X47515Y-13574D01*
X47363Y-13574D01*
X47286Y-13536D01*
X47248Y-13460D01*
X47248Y-13155D01*
X47286Y-13079D01*
X47363Y-13040D01*
X47515Y-13040D01*
X47591Y-13079D01*
X47629Y-13155D01*
X47629Y-13231D01*
X47248Y-13307D01*
X47972Y-13574D02*
X47972Y-13040D01*
X47972Y-13193D02*
X48011Y-13117D01*
X48049Y-13079D01*
X48125Y-13040D01*
X48201Y-13040D01*
X48506Y-13536D02*
X48506Y-13574D01*
X48467Y-13650D01*
X48429Y-13688D01*
X49344Y-13040D02*
X49649Y-13040D01*
X49458Y-13574D02*
X49458Y-12888D01*
X49497Y-12812D01*
X49573Y-12774D01*
X49649Y-12774D01*
X49915Y-13574D02*
X49915Y-13040D01*
X49915Y-13193D02*
X49954Y-13117D01*
X49992Y-13079D01*
X50068Y-13040D01*
X50144Y-13040D01*
X50525Y-13574D02*
X50449Y-13536D01*
X50410Y-13498D01*
X50372Y-13421D01*
X50372Y-13193D01*
X50410Y-13117D01*
X50449Y-13079D01*
X50525Y-13040D01*
X50639Y-13040D01*
X50715Y-13079D01*
X50753Y-13117D01*
X50791Y-13193D01*
X50791Y-13421D01*
X50753Y-13498D01*
X50715Y-13536D01*
X50639Y-13574D01*
X50525Y-13574D01*
X51134Y-13040D02*
X51134Y-13574D01*
X51134Y-13117D02*
X51173Y-13079D01*
X51249Y-13040D01*
X51363Y-13040D01*
X51439Y-13079D01*
X51477Y-13155D01*
X51477Y-13574D01*
X51744Y-13040D02*
X52049Y-13040D01*
X51858Y-12774D02*
X51858Y-13460D01*
X51897Y-13536D01*
X51973Y-13574D01*
X52049Y-13574D01*
X34134Y-40870D02*
X34134Y-41156D01*
X34515Y-41185D01*
X34477Y-41156D01*
X34439Y-41099D01*
X34439Y-40956D01*
X34477Y-40899D01*
X34515Y-40870D01*
X34591Y-40842D01*
X34781Y-40842D01*
X34858Y-40870D01*
X34896Y-40899D01*
X34934Y-40956D01*
X34934Y-41099D01*
X34896Y-41156D01*
X34858Y-41185D01*
X34858Y-40585D02*
X34896Y-40557D01*
X34934Y-40585D01*
X34896Y-40614D01*
X34858Y-40585D01*
X34934Y-40585D01*
X34134Y-40185D02*
X34134Y-40128D01*
X34172Y-40071D01*
X34210Y-40042D01*
X34286Y-40013D01*
X34439Y-39985D01*
X34629Y-39985D01*
X34781Y-40013D01*
X34858Y-40042D01*
X34896Y-40071D01*
X34934Y-40128D01*
X34934Y-40185D01*
X34896Y-40242D01*
X34858Y-40271D01*
X34781Y-40299D01*
X34629Y-40328D01*
X34439Y-40328D01*
X34286Y-40299D01*
X34210Y-40271D01*
X34172Y-40242D01*
X34134Y-40185D01*
X34134Y-39614D02*
X34134Y-39557D01*
X34172Y-39500D01*
X34210Y-39471D01*
X34286Y-39442D01*
X34439Y-39414D01*
X34629Y-39414D01*
X34781Y-39442D01*
X34858Y-39471D01*
X34896Y-39500D01*
X34934Y-39557D01*
X34934Y-39614D01*
X34896Y-39671D01*
X34858Y-39700D01*
X34781Y-39728D01*
X34629Y-39757D01*
X34439Y-39757D01*
X34286Y-39728D01*
X34210Y-39700D01*
X34172Y-39671D01*
X34134Y-39614D01*
X34134Y-39043D02*
X34134Y-38986D01*
X34172Y-38929D01*
X34210Y-38900D01*
X34286Y-38871D01*
X34439Y-38843D01*
X34629Y-38843D01*
X34781Y-38871D01*
X34858Y-38900D01*
X34896Y-38929D01*
X34934Y-38986D01*
X34934Y-39043D01*
X34896Y-39100D01*
X34858Y-39129D01*
X34781Y-39157D01*
X34629Y-39186D01*
X34439Y-39186D01*
X34286Y-39157D01*
X34210Y-39129D01*
X34172Y-39100D01*
X34134Y-39043D01*
X34134Y-38472D02*
X34134Y-38415D01*
X34172Y-38358D01*
X34210Y-38329D01*
X34286Y-38300D01*
X34439Y-38272D01*
X34629Y-38272D01*
X34781Y-38300D01*
X34858Y-38329D01*
X34896Y-38358D01*
X34934Y-38415D01*
X34934Y-38472D01*
X34896Y-38529D01*
X34858Y-38558D01*
X34781Y-38586D01*
X34629Y-38615D01*
X34439Y-38615D01*
X34286Y-38586D01*
X34210Y-38558D01*
X34172Y-38529D01*
X34134Y-38472D01*
X35250Y-64500D02*
X35250Y-14500D01*
X36500Y-64500D02*
X33970Y-64500D01*
X36500Y-14500D02*
X33970Y-14500D01*
X35250Y-14500D02*
X35480Y-14943D01*
X35250Y-14500D02*
X35020Y-14943D01*
X35250Y-64500D02*
X35480Y-64057D01*
X35250Y-64500D02*
X35020Y-64057D01*
X56601Y-67679D02*
X56601Y-68213D01*
X56458Y-67375D02*
X56315Y-67946D01*
X56687Y-67946D01*
X56915Y-68137D02*
X56943Y-68175D01*
X56915Y-68213D01*
X56886Y-68175D01*
X56915Y-68137D01*
X56915Y-68213D01*
X57315Y-67413D02*
X57372Y-67413D01*
X57429Y-67451D01*
X57458Y-67489D01*
X57487Y-67565D01*
X57515Y-67718D01*
X57515Y-67908D01*
X57487Y-68060D01*
X57458Y-68137D01*
X57429Y-68175D01*
X57372Y-68213D01*
X57315Y-68213D01*
X57258Y-68175D01*
X57229Y-68137D01*
X57201Y-68060D01*
X57172Y-67908D01*
X57172Y-67718D01*
X57201Y-67565D01*
X57229Y-67489D01*
X57258Y-67451D01*
X57315Y-67413D01*
X57886Y-67413D02*
X57943Y-67413D01*
X58000Y-67451D01*
X58029Y-67489D01*
X58058Y-67565D01*
X58086Y-67718D01*
X58086Y-67908D01*
X58058Y-68060D01*
X58029Y-68137D01*
X58000Y-68175D01*
X57943Y-68213D01*
X57886Y-68213D01*
X57829Y-68175D01*
X57800Y-68137D01*
X57772Y-68060D01*
X57743Y-67908D01*
X57743Y-67718D01*
X57772Y-67565D01*
X57800Y-67489D01*
X57829Y-67451D01*
X57886Y-67413D01*
X58457Y-67413D02*
X58514Y-67413D01*
X58571Y-67451D01*
X58600Y-67489D01*
X58629Y-67565D01*
X58657Y-67718D01*
X58657Y-67908D01*
X58629Y-68060D01*
X58600Y-68137D01*
X58571Y-68175D01*
X58514Y-68213D01*
X58457Y-68213D01*
X58400Y-68175D01*
X58371Y-68137D01*
X58343Y-68060D01*
X58314Y-67908D01*
X58314Y-67718D01*
X58343Y-67565D01*
X58371Y-67489D01*
X58400Y-67451D01*
X58457Y-67413D01*
X59028Y-67413D02*
X59085Y-67413D01*
X59142Y-67451D01*
X59171Y-67489D01*
X59200Y-67565D01*
X59228Y-67718D01*
X59228Y-67908D01*
X59200Y-68060D01*
X59171Y-68137D01*
X59142Y-68175D01*
X59085Y-68213D01*
X59028Y-68213D01*
X58971Y-68175D01*
X58942Y-68137D01*
X58914Y-68060D01*
X58885Y-67908D01*
X58885Y-67718D01*
X58914Y-67565D01*
X58942Y-67489D01*
X58971Y-67451D01*
X59028Y-67413D01*
X38000Y-67249D02*
X78000Y-67249D01*
X38000Y-66000D02*
X38000Y-68529D01*
X78000Y-66000D02*
X78000Y-68529D01*
X78000Y-67249D02*
X77557Y-67479D01*
X78000Y-67249D02*
X77557Y-67019D01*
X38000Y-67249D02*
X38443Y-67479D01*
X38000Y-67249D02*
X38443Y-67019D01*
G54D12*
X38000Y-64500D02*
X38000Y-14500D01*
X78000Y-64500D02*
X38000Y-64500D01*
X78000Y-14500D02*
X78000Y-64500D01*
X38000Y-14500D02*
X78000Y-14500D01*
M02*
