M48
;DRILL file {PCBnew (2010-05-05 BZR 2356)-stable} date 7/8/2010 2:38:34 PM
;FORMAT={-.-/ absolute / inch / decimal}
R,T
VER,1
FMAT,2
INCH,TZ
TCST,OFF
ICI,OFF
ATC,ON
T1C0.025
T2C0.026
T3C0.032
T4C0.040
T5C0.045
T6C0.070
T7C0.120
T8C0.130
%
M47
G05
M72
T1
X5.071Y-5.363
X5.275Y-5.335
X5.316Y-3.604
X5.749Y-5.912
X5.789Y-4.860
X5.804Y-4.918
X5.929Y-4.582
X5.933Y-5.716
X5.942Y-4.773
X7.148Y-5.770
T2
X6.567Y-1.946
X6.567Y-2.024
X6.567Y-2.103
X6.567Y-2.182
X6.567Y-2.261
X6.567Y-2.339
X6.567Y-2.418
X6.567Y-2.497
X6.567Y-2.576
X6.567Y-2.654
X7.433Y-1.946
X7.433Y-2.024
X7.433Y-2.103
X7.433Y-2.182
X7.433Y-2.261
X7.433Y-2.339
X7.433Y-2.418
X7.433Y-2.497
X7.433Y-2.576
X7.433Y-2.654
T3
X3.900Y-2.025
X3.950Y-4.250
X3.950Y-4.350
X3.950Y-4.450
X3.950Y-4.550
X3.950Y-4.650
X3.950Y-4.750
X3.950Y-4.850
X3.950Y-5.025
X3.975Y-5.125
X3.975Y-5.425
X4.000Y-2.275
X4.000Y-4.075
X4.025Y-5.550
X4.025Y-5.675
X4.075Y-5.125
X4.075Y-5.425
X4.100Y-2.025
X4.100Y-2.275
X4.175Y-5.125
X4.175Y-5.425
X4.200Y-1.675
X4.200Y-4.075
X4.225Y-2.500
X4.225Y-2.800
X4.250Y-4.250
X4.250Y-4.350
X4.250Y-4.450
X4.250Y-4.550
X4.250Y-4.650
X4.250Y-4.750
X4.250Y-4.850
X4.250Y-5.025
X4.275Y-5.125
X4.275Y-5.425
X4.300Y-1.675
X4.325Y-2.275
X4.325Y-5.550
X4.325Y-5.675
X4.350Y-5.025
X4.400Y-5.175
X4.400Y-5.375
X4.425Y-2.275
X4.550Y-5.175
X4.550Y-5.375
X4.650Y-5.025
X4.725Y-5.125
X4.725Y-5.425
X4.825Y-5.125
X4.825Y-5.425
X4.825Y-5.575
X4.925Y-5.125
X4.925Y-5.425
X5.025Y-5.125
X5.025Y-5.425
X5.075Y-5.675
X5.125Y-5.125
X5.125Y-5.425
X5.125Y-5.575
X5.225Y-5.125
X5.225Y-5.425
X5.325Y-5.125
X5.325Y-5.425
X5.375Y-5.675
X5.425Y-5.125
X5.425Y-5.425
X5.525Y-5.125
X5.525Y-5.425
X5.550Y-5.550
X5.550Y-5.850
X5.550Y-6.000
X5.550Y-6.125
X5.600Y-6.350
X5.700Y-6.350
X5.725Y-5.125
X5.725Y-5.225
X5.725Y-5.325
X5.725Y-5.525
X5.725Y-5.625
X5.725Y-5.725
X5.850Y-6.000
X5.850Y-6.125
X6.025Y-5.125
X6.025Y-5.225
X6.025Y-5.325
X6.025Y-5.525
X6.025Y-5.625
X6.025Y-5.725
X6.200Y-4.975
X6.200Y-5.175
X6.200Y-5.325
X6.200Y-5.525
X6.200Y-5.650
X6.200Y-5.950
X6.225Y-1.950
X6.225Y-2.150
X6.225Y-2.300
X6.225Y-2.500
X6.225Y-2.650
X6.225Y-2.850
X6.375Y-3.150
X6.375Y-3.550
X6.375Y-3.850
X6.400Y-1.950
X6.400Y-2.050
X6.400Y-2.150
X6.400Y-2.250
X6.400Y-2.350
X6.400Y-2.450
X6.400Y-2.550
X6.400Y-2.650
X6.400Y-2.750
X6.400Y-2.850
X6.400Y-4.000
X6.400Y-4.100
X6.400Y-4.200
X6.400Y-4.300
X6.400Y-4.400
X6.400Y-4.500
X6.400Y-4.600
X6.400Y-4.700
X6.400Y-5.150
X6.400Y-5.250
X6.400Y-5.350
X6.425Y-5.850
X6.425Y-6.150
X6.475Y-3.150
X6.500Y-3.550
X6.500Y-3.850
X6.500Y-6.325
X6.600Y-3.900
X6.600Y-4.000
X6.600Y-4.100
X6.600Y-4.200
X6.600Y-4.300
X6.600Y-4.400
X6.600Y-4.500
X6.600Y-4.600
X6.600Y-4.700
X6.600Y-4.800
X6.600Y-4.900
X6.600Y-5.000
X6.600Y-5.100
X6.600Y-5.200
X6.600Y-5.450
X6.600Y-6.325
X6.650Y-3.700
X6.650Y-5.700
X6.650Y-5.950
X6.650Y-6.050
X6.688Y-3.275
X6.688Y-3.575
X6.700Y-5.450
X6.700Y-6.325
X6.750Y-5.950
X6.750Y-6.050
X6.788Y-3.275
X6.788Y-3.575
X6.800Y-5.450
X6.800Y-6.325
X6.825Y-3.075
X6.850Y-3.700
X6.850Y-5.700
X6.850Y-5.950
X6.850Y-6.050
X6.888Y-3.275
X6.888Y-3.575
X6.900Y-3.900
X6.900Y-4.000
X6.900Y-4.100
X6.900Y-4.200
X6.900Y-4.300
X6.900Y-4.400
X6.900Y-4.500
X6.900Y-4.600
X6.900Y-4.700
X6.900Y-4.800
X6.900Y-4.900
X6.900Y-5.000
X6.900Y-5.100
X6.900Y-5.200
X6.900Y-5.450
X6.900Y-6.325
X6.925Y-3.075
X6.988Y-3.275
X6.988Y-3.575
X7.000Y-6.325
X7.025Y-3.700
X7.025Y-5.550
X7.025Y-5.650
X7.025Y-5.750
X7.025Y-5.850
X7.025Y-5.950
X7.025Y-6.050
X7.025Y-6.150
X7.075Y-3.075
X7.088Y-3.275
X7.088Y-3.575
X7.100Y-3.900
X7.100Y-4.000
X7.100Y-4.100
X7.100Y-4.200
X7.100Y-4.300
X7.100Y-4.400
X7.100Y-4.500
X7.100Y-4.600
X7.100Y-4.800
X7.100Y-4.900
X7.100Y-5.000
X7.100Y-5.100
X7.100Y-5.200
X7.100Y-5.300
X7.175Y-3.075
X7.188Y-3.275
X7.188Y-3.575
X7.225Y-3.700
X7.250Y-5.350
X7.275Y-4.075
X7.275Y-4.275
X7.275Y-4.525
X7.275Y-4.725
X7.275Y-4.975
X7.275Y-5.175
X7.288Y-3.275
X7.288Y-3.575
X7.325Y-5.550
X7.325Y-5.650
X7.325Y-5.750
X7.325Y-5.850
X7.325Y-5.950
X7.325Y-6.050
X7.325Y-6.150
X7.375Y-3.050
X7.375Y-3.150
X7.400Y-3.700
X7.425Y-4.025
X7.425Y-4.325
X7.425Y-4.475
X7.425Y-4.775
X7.425Y-4.925
X7.425Y-5.225
X7.450Y-5.550
X7.450Y-5.750
X7.550Y-3.400
X7.550Y-3.500
X7.550Y-5.350
X7.600Y-1.950
X7.600Y-2.050
X7.600Y-2.150
X7.600Y-2.250
X7.600Y-2.350
X7.600Y-2.450
X7.600Y-2.550
X7.600Y-2.650
X7.600Y-2.750
X7.600Y-2.850
X7.600Y-3.700
X7.650Y-3.400
X7.675Y-3.050
X7.675Y-3.150
T4
X3.925Y-1.600
X3.925Y-1.800
X3.925Y-2.550
X3.925Y-2.750
X3.925Y-3.075
X3.925Y-3.275
X3.925Y-3.650
X3.925Y-3.850
X3.975Y-5.875
X4.065Y-5.875
X4.090Y-6.065
X4.130Y-6.135
X4.170Y-6.065
X4.210Y-6.135
X4.225Y-1.900
X4.225Y-2.025
X4.225Y-3.025
X4.225Y-3.325
X4.225Y-3.600
X4.225Y-3.900
X4.250Y-6.065
X4.290Y-6.135
X4.330Y-6.065
X4.370Y-6.135
X4.425Y-5.875
X4.515Y-5.875
X4.525Y-1.900
X4.525Y-2.025
X4.825Y-5.875
X4.915Y-5.875
X4.940Y-6.065
X4.980Y-6.135
X5.020Y-6.065
X5.060Y-6.135
X5.100Y-6.065
X5.140Y-6.135
X5.180Y-6.065
X5.220Y-6.135
X5.275Y-5.875
X5.365Y-5.875
X5.993Y-6.119
X5.993Y-6.296
X6.249Y-6.119
X6.249Y-6.296
X7.675Y-3.900
X7.675Y-4.000
X7.675Y-4.100
X7.675Y-4.200
X7.675Y-4.300
X7.675Y-4.900
X7.675Y-5.000
X7.675Y-5.100
X7.675Y-5.200
X7.675Y-5.300
X7.675Y-5.650
X7.675Y-5.850
T5
X4.700Y-2.225
X4.700Y-2.325
X4.700Y-2.425
X4.700Y-3.175
X4.700Y-3.275
X4.700Y-3.375
X4.700Y-4.125
X4.700Y-4.225
X4.700Y-4.325
T6
X3.925Y-6.100
X4.565Y-6.100
X4.775Y-6.100
X5.415Y-6.100
T7
X4.550Y-1.700
X4.550Y-5.650
X5.350Y-2.325
X5.350Y-3.275
X5.350Y-4.225
X7.550Y-1.700
X7.550Y-6.200
T8
X3.995Y-6.235
X4.495Y-6.235
X4.845Y-6.235
X5.345Y-6.235
T0
M30
